Coordinates
version=1
nRows=16
nColumns=22
inDegrees=yes

Units are S.I. units (second, meters, Newtons, ...)
If the header above contains a line with 'inDegrees', this indicates whether rotational values are in degrees (yes) or radians (no).

endheader
time	pelvis_tilt	pelvis_list	pelvis_rotation	pelvis_tx	pelvis_ty	pelvis_tz	hip_flexion_r	hip_adduction_r	hip_rotation_r	knee_angle_r	ankle_angle_r	subtalar_angle_r	hip_flexion_l	hip_adduction_l	hip_rotation_l	knee_angle_l	ankle_angle_l	subtalar_angle_l	lumbar_extension	lumbar_bending	lumbar_rotation
      2.31000000	      3.20368845	     -3.83253554	     11.40650375	     -0.98090827	      0.89716504	     -0.73839998	     27.48927449	      3.53207957	    -19.67979776	    -29.66461538	      2.60622663	     -7.35852651	    -21.63716245	     -7.52240939	     -4.50997100	    -23.86017966	     13.48033641	      2.78628329	    -10.99021532	      7.37624055	    -18.76218011
      2.32000000	      3.36925124	     -4.05266378	     11.32140554	     -0.96870569	      0.89857504	     -0.73715743	     26.88274806	      4.14604087	    -19.25921309	    -30.17794586	      3.37396144	     -7.92532133	    -21.14626034	     -8.06087668	     -3.64836125	    -25.90379150	     10.66896033	      3.88035795	    -10.78006778	      7.65781217	    -18.91192956
      2.33000000	      3.56298932	     -4.16750979	     11.34041659	     -0.95679547	      0.90019022	     -0.73607194	     26.16704717	      4.63452823	    -18.89347948	    -30.59140624	      4.25321654	     -8.31751494	    -20.44674168	     -8.49624345	     -2.46733498	    -28.20485460	      7.77575963	      4.77204958	    -10.66176085	      7.83938804	    -19.15914255
      2.34000000	      3.75506173	     -4.31908086	     11.38876896	     -0.94510327	      0.90187049	     -0.73498504	     25.37228094	      5.19345067	    -18.51418654	    -30.80901358	      5.11671216	     -8.77032201	    -19.52293709	     -8.94547817	     -1.15552918	    -30.73683809	      4.90298509	      5.70488562	    -10.56962001	      8.06431059	    -19.32635345
      2.35000000	      3.97318823	     -4.41302801	     11.52003123	     -0.93379576	      0.90361788	     -0.73404356	     24.49983533	      5.66377971	    -18.24034190	    -30.93691341	      5.98550433	     -9.15918211	    -18.38985067	     -9.31110297	      0.34995379	    -33.50197256	      2.21521274	      6.36744005	    -10.57016189	      8.24300215	    -19.53972700
      2.36000000	      4.21547348	     -4.48819998	     11.74157724	     -0.92286995	      0.90538833	     -0.73327824	     23.55402692	      6.07820548	    -18.10813550	    -30.95561048	      6.81780246	     -9.43460005	    -17.06283629	     -9.61770520	      2.01199502	    -36.45496714	     -0.12516506	      6.70404171	    -10.64775223	      8.42586479	    -19.79959942
      2.37000000	      4.43064804	     -4.58987070	     11.94806376	     -0.91226784	      0.90704789	     -0.73249030	     22.60590635	      6.52388006	    -18.00661075	    -30.85939875	      7.60836144	     -9.79878542	    -15.53588578	     -9.88400127	      3.62751047	    -39.53605175	     -2.10905489	      7.03540544	    -10.73865467	      8.63125847	    -19.93655361
      2.38000000	      4.68396558	     -4.70499772	     12.19465658	     -0.90204037	      0.90866949	     -0.73176175	     21.59731952	      6.95852834	    -18.04897720	    -30.68221892	      8.33249702	    -10.04890851	    -13.87230881	    -10.14023397	      5.15941258	    -42.71853008	     -3.58068089	      7.12991403	    -10.92366200	      8.87121857	    -20.10297924
      2.39000000	      4.91916270	     -4.85590816	     12.41688047	     -0.89211404	      0.91018187	     -0.73097573	     20.58545178	      7.42423287	    -18.16310477	    -30.40508020	      8.98933012	    -10.27064496	    -12.06037999	    -10.39218021	      6.52660335	    -45.91642896	     -4.53296095	      7.15515633	    -11.12411378	      9.14407900	    -20.17282305
      2.40000000	      5.12333635	     -5.04658069	     12.58796430	     -0.88245168	      0.91156887	     -0.73003976	     19.58993729	      7.93285678	    -18.31818194	    -30.04032519	      9.57384088	    -10.47751079	    -10.10590053	    -10.66257848	      7.66827088	    -49.08007521	     -4.97140527	      7.11512433	    -11.32306790	      9.43924749	    -20.16756512
      2.41000000	      5.28665006	     -5.27111372	     12.67094034	     -0.87299101	      0.91285720	     -0.72886306	     18.61346767	      8.49009609	    -18.47199689	    -29.58449704	     10.10077591	    -10.66141381	     -8.03638205	    -10.95267701	      8.56526059	    -52.13851405	     -4.94763243	      6.95140225	    -11.50760322	      9.73397545	    -20.04926805
      2.42000000	      5.46019029	     -5.54249620	     12.67124011	     -0.86366451	      0.91417496	     -0.72742710	     17.57908223	      9.12511122	    -18.63407664	    -28.99528117	     10.47647319	    -10.71870441	     -5.94229309	    -11.29981714	      9.25379247	    -55.01406598	     -4.47788220	      6.72772509	    -11.72331329	     10.05105505	    -19.83899604
      2.43000000	      5.55976447	     -5.81903410	     12.52593394	     -0.85446406	      0.91542046	     -0.72562328	     16.59444362	      9.79179213	    -18.68474200	    -28.34079378	     10.78668818	    -10.75187079	     -3.75851591	    -11.64384157	      9.70912872	    -57.68885439	     -3.70796119	      6.24403462	    -11.88927472	     10.31327594	    -19.52480124
      2.44000000	      5.63363721	     -6.09446734	     12.23631846	     -0.84528883	      0.91672431	     -0.72347250	     15.57352958	     10.49556261	    -18.62290433	    -27.58044777	     11.02885254	    -10.72616159	     -1.58705430	    -11.99204473	      9.96945516	    -60.09062622	     -2.69650005	      5.52688530	    -12.04339110	     10.52285648	    -19.08513791
      2.45000000	      5.67443463	     -6.34975859	     11.78765810	     -0.83613740	      0.91809584	     -0.72096383	     14.52536546	     11.20876605	    -18.43492112	    -26.73910402	     11.17667460	    -10.64838385	      0.55190637	    -12.31921074	     10.05599029	    -62.19558144	     -1.51011054	      4.53758226	    -12.18726919	     10.65661099	    -18.51765724
      2.46000000	      5.69394055	     -6.58414537	     11.18018402	     -0.82702519	      0.91954393	     -0.71809850	     13.44504068	     11.93165239	    -18.07869518	    -25.83783902	     11.24179229	    -10.52269058	      2.62977010	    -12.63186448	      9.98657793	    -63.99148546	     -0.18705075	      3.29176053	    -12.33214083	     10.71880756	    -17.85773832
